<svg width="207" height="184" viewBox="0 0 207 184" fill="none" xmlns="http://www.w3.org/2000/svg">
<g filter="url(#filter0_dd_4423_6823)">
<path d="M109.427 4.39294L102.919 6.07581L22.7438 26.8092L16.2362 28.4921C13.0774 29.3128 10.3723 31.3564 8.71427 34.1746C7.05622 36.9928 6.58066 40.3555 7.39193 43.5249L35.6105 153.256C36.4289 156.423 38.4668 159.136 41.2772 160.799C44.0876 162.461 47.4409 162.938 50.6014 162.125L50.6182 162.12L143.775 138.03L143.792 138.026C146.951 137.205 149.656 135.161 151.314 132.343C152.972 129.525 153.448 126.162 152.637 122.993L124.418 13.2619C123.6 10.0944 121.562 7.38169 118.751 5.719C115.941 4.05631 112.588 3.57942 109.427 4.39294Z" fill="#F2F5F8"/>
<path d="M110.311 7.8328L102.603 9.82605L24.828 29.9388L17.1203 31.932C14.8709 32.5164 12.9445 33.9717 11.7637 35.9786C10.583 37.9855 10.2443 40.3802 10.822 42.6372L39.0406 152.368C39.6234 154.624 41.0747 156.556 43.076 157.74C45.0773 158.924 47.4653 159.263 49.716 158.684L49.7328 158.68L142.89 134.589L142.907 134.585C145.156 134 147.083 132.545 148.263 130.538C149.444 128.531 149.783 126.137 149.205 123.88L120.986 14.1486C120.404 11.893 118.952 9.9612 116.951 8.77716C114.95 7.59312 112.562 7.2535 110.311 7.8328Z" fill="white"/>
<path d="M104.491 43.3665L57.3653 55.5533C56.8389 55.6894 56.2802 55.6103 55.812 55.3333C55.3439 55.0563 55.0046 54.6042 54.8689 54.0763C54.7332 53.5485 54.8121 52.9883 55.0883 52.5188C55.3645 52.0493 55.8153 51.7091 56.3417 51.573L103.468 39.3862C103.994 39.2506 104.552 39.3301 105.02 39.6071C105.488 39.8841 105.827 40.3361 105.962 40.8636C106.098 41.3911 106.019 41.951 105.743 42.4204C105.468 42.8897 105.017 43.23 104.491 43.3665Z" fill="#F2F5F8"/>
<path d="M114.405 47.9663L59.0924 62.2701C58.5661 62.4062 58.0074 62.327 57.5392 62.0501C57.0711 61.7731 56.7318 61.321 56.5961 60.7931C56.4603 60.2653 56.5392 59.7051 56.8154 59.2356C57.0917 58.7661 57.5425 58.4259 58.0689 58.2898L113.381 43.986C113.908 43.8499 114.466 43.929 114.935 44.206C115.403 44.483 115.742 44.9351 115.878 45.4629C116.013 45.9907 115.935 46.551 115.658 47.0205C115.382 47.4899 114.931 47.8302 114.405 47.9663Z" fill="#F2F5F8"/>
<path d="M112.232 73.4675L65.106 85.6543C64.8454 85.7217 64.5741 85.7369 64.3076 85.6992C64.0411 85.6614 63.7846 85.5714 63.5528 85.4343C63.321 85.2971 63.1184 85.1155 62.9565 84.8999C62.7947 84.6842 62.6768 84.4387 62.6096 84.1773C62.5424 83.916 62.5272 83.6439 62.5648 83.3767C62.6025 83.1094 62.6922 82.8522 62.829 82.6198C62.9658 82.3873 63.1468 82.1841 63.3619 82.0219C63.577 81.8596 63.8218 81.7414 64.0824 81.674L111.208 69.4872C111.469 69.4198 111.74 69.4045 112.007 69.4423C112.273 69.48 112.53 69.5701 112.762 69.7072C112.993 69.8443 113.196 70.0259 113.358 70.2416C113.52 70.4573 113.638 70.7028 113.705 70.9641C113.772 71.2255 113.787 71.4975 113.75 71.7648C113.712 72.032 113.622 72.2892 113.485 72.5217C113.349 72.7541 113.168 72.9573 112.953 73.1196C112.737 73.2819 112.493 73.4001 112.232 73.4675Z" fill="#F2F5F8"/>
<path d="M122.146 78.0671L66.8333 92.371C66.5727 92.4383 66.3014 92.4536 66.0349 92.4159C65.7683 92.3781 65.5119 92.2881 65.2801 92.151C65.0483 92.0138 64.8456 91.8322 64.6838 91.6166C64.522 91.4009 64.4041 91.1554 64.3369 90.894C64.2697 90.6327 64.2545 90.3606 64.2921 90.0934C64.3298 89.8261 64.4195 89.5689 64.5563 89.3365C64.693 89.104 64.8741 88.9008 65.0892 88.7386C65.3043 88.5763 65.5491 88.4581 65.8097 88.3907L121.122 74.0868C121.649 73.9507 122.207 74.0299 122.675 74.3068C123.144 74.5838 123.483 75.036 123.619 75.5638C123.754 76.0916 123.675 76.6519 123.399 77.1213C123.123 77.5908 122.672 77.931 122.146 78.0671Z" fill="#F2F5F8"/>
<path d="M119.973 103.568L72.8468 115.755C72.3206 115.891 71.7622 115.811 71.2944 115.534C70.8265 115.257 70.4875 114.805 70.3518 114.278C70.2161 113.75 70.2949 113.19 70.5708 112.721C70.8467 112.252 71.2972 111.911 71.8232 111.775L118.949 99.5881C119.476 99.452 120.034 99.5311 120.502 99.8081C120.971 100.085 121.31 100.537 121.446 101.065C121.581 101.593 121.502 102.153 121.226 102.623C120.95 103.092 120.499 103.432 119.973 103.568Z" fill="#F2F2F2"/>
<path d="M129.887 108.168L74.5741 122.472C74.3134 122.54 74.0419 122.555 73.7752 122.517C73.5085 122.48 73.2519 122.39 73.0199 122.253C72.7879 122.116 72.5851 121.934 72.4231 121.718C72.2611 121.503 72.1432 121.257 72.0759 120.995C72.0087 120.734 71.9935 120.462 72.0312 120.194C72.0689 119.927 72.1588 119.67 72.2958 119.437C72.4327 119.205 72.614 119.001 72.8293 118.839C73.0446 118.677 73.2897 118.559 73.5505 118.492L128.863 104.188C129.389 104.052 129.948 104.131 130.416 104.408C130.884 104.685 131.224 105.137 131.359 105.665C131.495 106.193 131.416 106.753 131.14 107.222C130.864 107.692 130.413 108.032 129.887 108.168Z" fill="#F2F2F2"/>
<path opacity="0.5" d="M49.3202 68.049L32.6428 72.3618C32.3904 72.4268 32.1226 72.3887 31.8982 72.2559C31.6738 72.1232 31.5111 71.9066 31.4457 71.6536L27.6174 56.7669C27.5527 56.5138 27.5906 56.2453 27.723 56.0203C27.8554 55.7953 28.0714 55.6321 28.3237 55.5666L45.0011 51.2538C45.2535 51.1888 45.5212 51.2269 45.7456 51.3596C45.97 51.4924 46.1328 51.709 46.1981 51.9619L50.0264 66.8487C50.0912 67.1017 50.0532 67.3703 49.9208 67.5953C49.7884 67.8203 49.5724 67.9835 49.3202 68.049Z" fill="#CDD4DF"/>
<path opacity="0.5" d="M57.0609 98.1499L40.3835 102.463C40.1311 102.528 39.8633 102.49 39.6389 102.357C39.4145 102.224 39.2518 102.007 39.1865 101.755L35.3582 86.8679C35.2934 86.6148 35.3314 86.3463 35.4638 86.1212C35.5962 85.8962 35.8122 85.733 36.0644 85.6675L52.7418 81.3547C52.9942 81.2898 53.2619 81.3278 53.4864 81.4606C53.7108 81.5934 53.8735 81.81 53.9388 82.0629L57.7671 96.9496C57.8319 97.2027 57.7939 97.4712 57.6615 97.6962C57.5291 97.9212 57.3131 98.0844 57.0609 98.1499Z" fill="#CDD4DF"/>
<path opacity="0.5" d="M64.8017 128.251L48.1243 132.564C47.872 132.629 47.6042 132.591 47.3798 132.458C47.1554 132.325 46.9926 132.108 46.9273 131.856L43.099 116.969C43.0342 116.716 43.0722 116.447 43.2046 116.222C43.337 115.997 43.553 115.834 43.8052 115.768L60.4827 111.456C60.735 111.391 61.0028 111.429 61.2272 111.562C61.4516 111.694 61.6143 111.911 61.6797 112.164L65.508 127.051C65.5727 127.304 65.5348 127.572 65.4024 127.797C65.27 128.022 65.054 128.185 64.8017 128.251Z" fill="#CDD4DF"/>
<g filter="url(#filter1_dd_4423_6823)">
<path d="M174.422 32.2079H78.1827C74.9197 32.2115 71.7914 33.513 69.4841 35.8268C67.1768 38.1405 65.8789 41.2776 65.8752 44.5497V157.871C65.8789 161.143 67.1768 164.28 69.4841 166.594C71.7914 168.907 74.9197 170.209 78.1827 170.212H174.422C177.685 170.209 180.814 168.907 183.121 166.594C185.428 164.28 186.726 161.143 186.73 157.871V44.5497C186.726 41.2776 185.428 38.1405 183.121 35.8268C180.814 33.513 177.685 32.2115 174.422 32.2079Z" fill="#CDD4DF"/>
</g>
<path d="M174.422 35.7608H78.1827C75.859 35.7634 73.6312 36.6902 71.9881 38.3379C70.3451 39.9856 69.4208 42.2196 69.4182 44.5497V157.871C69.4208 160.201 70.3451 162.435 71.9881 164.082C73.6312 165.73 75.859 166.657 78.1827 166.659H174.422C176.746 166.657 178.974 165.73 180.617 164.082C182.26 162.435 183.184 160.201 183.187 157.871V44.5497C183.184 42.2196 182.26 39.9856 180.617 38.3379C178.974 36.6903 176.746 35.7634 174.422 35.7608Z" fill="white"/>
<path d="M159.938 98.0303H111.271C111.001 98.0307 110.734 97.9777 110.486 97.8746C110.237 97.7714 110.01 97.6201 109.82 97.4292C109.629 97.2383 109.478 97.0116 109.375 96.7621C109.272 96.5126 109.219 96.2452 109.219 95.9751C109.219 95.705 109.272 95.4375 109.375 95.188C109.478 94.9385 109.629 94.7119 109.82 94.521C110.01 94.3301 110.237 94.1788 110.486 94.0756C110.734 93.9725 111.001 93.9195 111.271 93.9198H159.938C160.481 93.9204 161.002 94.1372 161.386 94.5226C161.77 94.908 161.986 95.4304 161.986 95.9751C161.986 96.5198 161.77 97.0422 161.386 97.4276C161.002 97.8129 160.481 98.0297 159.938 98.0303Z" fill="#CDD4DF"/>
<path d="M168.393 104.967H111.271C111.001 104.967 110.734 104.914 110.486 104.811C110.237 104.708 110.01 104.556 109.82 104.366C109.629 104.175 109.478 103.948 109.375 103.699C109.272 103.449 109.219 103.182 109.219 102.912C109.219 102.641 109.272 102.374 109.375 102.124C109.478 101.875 109.629 101.648 109.82 101.457C110.01 101.267 110.237 101.115 110.486 101.012C110.734 100.909 111.001 100.856 111.271 100.856H168.393C168.936 100.856 169.457 101.073 169.842 101.458C170.226 101.844 170.442 102.366 170.442 102.912C170.442 103.457 170.226 103.979 169.842 104.365C169.457 104.75 168.936 104.967 168.393 104.967Z" fill="#CDD4DF"/>
<path d="M159.938 129.116H111.271C111.001 129.116 110.734 129.063 110.486 128.96C110.237 128.857 110.01 128.706 109.82 128.515C109.629 128.324 109.478 128.097 109.375 127.848C109.272 127.598 109.219 127.331 109.219 127.061C109.219 126.791 109.272 126.523 109.375 126.274C109.478 126.024 109.629 125.798 109.82 125.607C110.01 125.416 110.237 125.264 110.486 125.161C110.734 125.058 111.001 125.005 111.271 125.006H159.938C160.482 125.006 161.003 125.222 161.388 125.608C161.772 125.993 161.988 126.516 161.988 127.061C161.988 127.606 161.772 128.129 161.388 128.514C161.003 128.9 160.482 129.116 159.938 129.116Z" fill="#CDD4DF"/>
<path d="M168.393 136.052H111.271C111.001 136.053 110.734 136 110.486 135.897C110.237 135.794 110.01 135.642 109.82 135.451C109.629 135.26 109.478 135.034 109.375 134.784C109.272 134.535 109.219 134.267 109.219 133.997C109.219 133.727 109.272 133.46 109.375 133.21C109.478 132.961 109.629 132.734 109.82 132.543C110.01 132.352 110.237 132.201 110.486 132.098C110.734 131.995 111.001 131.942 111.271 131.942H168.393C168.662 131.942 168.929 131.995 169.178 132.098C169.427 132.201 169.653 132.352 169.843 132.543C170.034 132.734 170.185 132.961 170.288 133.21C170.391 133.46 170.444 133.727 170.444 133.997C170.444 134.267 170.391 134.535 170.288 134.784C170.185 135.034 170.034 135.26 169.843 135.451C169.653 135.642 169.427 135.794 169.178 135.897C168.929 136 168.662 136.053 168.393 136.052Z" fill="#CDD4DF"/>
<path d="M100.369 108.116H83.1457C82.8852 108.115 82.6354 108.011 82.4511 107.827C82.2669 107.642 82.1632 107.391 82.163 107.13V91.7564C82.1632 91.4951 82.2669 91.2446 82.4511 91.0599C82.6354 90.8751 82.8852 90.7712 83.1457 90.7709H100.369C100.629 90.7712 100.879 90.8751 101.063 91.0599C101.248 91.2446 101.351 91.4951 101.352 91.7564V107.13C101.351 107.391 101.248 107.642 101.063 107.827C100.879 108.011 100.629 108.115 100.369 108.116Z" fill="#CDD4DF"/>
<path d="M100.369 139.201H83.1457C82.8852 139.201 82.6354 139.097 82.4511 138.912C82.2669 138.728 82.1632 138.477 82.163 138.216V122.842C82.1632 122.581 82.2669 122.33 82.4511 122.146C82.6354 121.961 82.8852 121.857 83.1457 121.857H100.369C100.629 121.857 100.879 121.961 101.063 122.146C101.248 122.33 101.351 122.581 101.352 122.842V138.216C101.351 138.477 101.248 138.728 101.063 138.912C100.879 139.097 100.629 139.201 100.369 139.201Z" fill="#CDD4DF"/>
<path d="M159.992 63.4257H124.112C123.568 63.4257 123.047 63.2092 122.662 62.8238C122.278 62.4383 122.062 61.9156 122.062 61.3705C122.062 60.8254 122.278 60.3026 122.662 59.9172C123.047 59.5318 123.568 59.3152 124.112 59.3152H159.992C160.536 59.3152 161.057 59.5318 161.442 59.9172C161.826 60.3026 162.042 60.8254 162.042 61.3705C162.042 61.9156 161.826 62.4383 161.442 62.8238C161.057 63.2092 160.536 63.4257 159.992 63.4257Z" fill="#CDD4DF"/>
<path d="M168.447 70.3623H124.112C123.842 70.3623 123.576 70.3091 123.327 70.2059C123.079 70.1026 122.853 69.9512 122.662 69.7603C122.472 69.5695 122.321 69.3429 122.218 69.0936C122.115 68.8442 122.062 68.5769 122.062 68.307C122.062 68.0371 122.115 67.7699 122.218 67.5205C122.321 67.2712 122.472 67.0446 122.662 66.8538C122.853 66.6629 123.079 66.5115 123.327 66.4082C123.576 66.305 123.842 66.2518 124.112 66.2518H168.447C168.99 66.2518 169.511 66.4683 169.896 66.8538C170.28 67.2392 170.496 67.762 170.496 68.307C170.496 68.8521 170.28 69.3749 169.896 69.7603C169.511 70.1458 168.99 70.3623 168.447 70.3623Z" fill="#CDD4DF"/>
<path d="M116.171 78.7685H83.0916C82.8311 78.7682 82.5813 78.6643 82.397 78.4795C82.2128 78.2948 82.1092 78.0443 82.1089 77.783V51.8947C82.1092 51.6334 82.2128 51.3829 82.397 51.1981C82.5813 51.0134 82.8311 50.9095 83.0916 50.9092H116.171C116.431 50.9095 116.681 51.0134 116.865 51.1981C117.049 51.3829 117.153 51.6334 117.153 51.8947V77.783C117.153 78.0443 117.049 78.2948 116.865 78.4795C116.681 78.6643 116.431 78.7682 116.171 78.7685Z" fill="#CDD4DF"/>
</g>
<defs>
<filter id="filter0_dd_4423_6823" x="0" y="0" width="214" height="194" filterUnits="userSpaceOnUse" color-interpolation-filters="sRGB">
<feFlood flood-opacity="0" result="BackgroundImageFix"/>
<feColorMatrix in="SourceAlpha" type="matrix" values="0 0 0 0 0 0 0 0 0 0 0 0 0 0 0 0 0 0 127 0" result="hardAlpha"/>
<feMorphology radius="1" operator="erode" in="SourceAlpha" result="effect1_dropShadow_4423_6823"/>
<feOffset dy="3"/>
<feGaussianBlur stdDeviation="4"/>
<feColorMatrix type="matrix" values="0 0 0 0 0.196078 0 0 0 0 0.196078 0 0 0 0 0.278431 0 0 0 0.05 0"/>
<feBlend mode="normal" in2="BackgroundImageFix" result="effect1_dropShadow_4423_6823"/>
<feColorMatrix in="SourceAlpha" type="matrix" values="0 0 0 0 0 0 0 0 0 0 0 0 0 0 0 0 0 0 127 0" result="hardAlpha"/>
<feOffset/>
<feGaussianBlur stdDeviation="0.5"/>
<feColorMatrix type="matrix" values="0 0 0 0 0.0470588 0 0 0 0 0.101961 0 0 0 0 0.294118 0 0 0 0.24 0"/>
<feBlend mode="normal" in2="effect1_dropShadow_4423_6823" result="effect2_dropShadow_4423_6823"/>
<feBlend mode="normal" in="SourceGraphic" in2="effect2_dropShadow_4423_6823" result="shape"/>
</filter>
<filter id="filter1_dd_4423_6823" x="58.8752" y="28.2079" width="134.855" height="152.005" filterUnits="userSpaceOnUse" color-interpolation-filters="sRGB">
<feFlood flood-opacity="0" result="BackgroundImageFix"/>
<feColorMatrix in="SourceAlpha" type="matrix" values="0 0 0 0 0 0 0 0 0 0 0 0 0 0 0 0 0 0 127 0" result="hardAlpha"/>
<feMorphology radius="1" operator="erode" in="SourceAlpha" result="effect1_dropShadow_4423_6823"/>
<feOffset dy="3"/>
<feGaussianBlur stdDeviation="4"/>
<feColorMatrix type="matrix" values="0 0 0 0 0.196078 0 0 0 0 0.196078 0 0 0 0 0.278431 0 0 0 0.05 0"/>
<feBlend mode="normal" in2="BackgroundImageFix" result="effect1_dropShadow_4423_6823"/>
<feColorMatrix in="SourceAlpha" type="matrix" values="0 0 0 0 0 0 0 0 0 0 0 0 0 0 0 0 0 0 127 0" result="hardAlpha"/>
<feOffset/>
<feGaussianBlur stdDeviation="0.5"/>
<feColorMatrix type="matrix" values="0 0 0 0 0.0470588 0 0 0 0 0.101961 0 0 0 0 0.294118 0 0 0 0.24 0"/>
<feBlend mode="normal" in2="effect1_dropShadow_4423_6823" result="effect2_dropShadow_4423_6823"/>
<feBlend mode="normal" in="SourceGraphic" in2="effect2_dropShadow_4423_6823" result="shape"/>
</filter>
</defs>
</svg>
