<svg width="24" height="24" viewBox="0 0 24 24" fill="none" xmlns="http://www.w3.org/2000/svg">
<mask id="mask0_5108_123" style="mask-type:alpha" maskUnits="userSpaceOnUse" x="0" y="0" width="24" height="24">
<rect width="24" height="24" fill="#D9D9D9"/>
</mask>
<g mask="url(#mask0_5108_123)">
<path d="M12.0006 22C10.7506 22 9.57975 21.7625 8.48809 21.2875C7.39642 20.8125 6.44642 20.1709 5.63809 19.3625C4.82975 18.5542 4.18809 17.6042 3.71309 16.5125C3.23809 15.4209 3.00059 14.25 3.00059 13C3.00059 11.75 3.23809 10.5792 3.71309 9.48754C4.18809 8.39587 4.82975 7.44587 5.63809 6.63754C6.44642 5.8292 7.39642 5.18754 8.48809 4.71254C9.57975 4.23754 10.7506 4.00004 12.0006 4.00004C13.2506 4.00004 14.4214 4.23754 15.5131 4.71254C16.6048 5.18754 17.5548 5.8292 18.3631 6.63754C19.1714 7.44587 19.8131 8.39587 20.2881 9.48754C20.7631 10.5792 21.0006 11.75 21.0006 13C21.0006 14.25 20.7631 15.4209 20.2881 16.5125C19.8131 17.6042 19.1714 18.5542 18.3631 19.3625C17.5548 20.1709 16.6048 20.8125 15.5131 21.2875C14.4214 21.7625 13.2506 22 12.0006 22ZM14.8006 17.2L16.2006 15.8L13.0006 12.6V8.00004H11.0006V13.4L14.8006 17.2ZM5.60059 2.35004L7.00059 3.75004L2.75059 8.00004L1.35059 6.60004L5.60059 2.35004ZM18.4006 2.35004L22.6506 6.60004L21.2506 8.00004L17.0006 3.75004L18.4006 2.35004ZM12.0006 20C13.9506 20 15.6048 19.3209 16.9631 17.9625C18.3214 16.6042 19.0006 14.95 19.0006 13C19.0006 11.05 18.3214 9.39587 16.9631 8.03754C15.6048 6.6792 13.9506 6.00004 12.0006 6.00004C10.0506 6.00004 8.39642 6.6792 7.03809 8.03754C5.67975 9.39587 5.00059 11.05 5.00059 13C5.00059 14.95 5.67975 16.6042 7.03809 17.9625C8.39642 19.3209 10.0506 20 12.0006 20Z" fill="#4A5466"/>
</g>
</svg>
