<svg width="190" height="40" viewBox="0 0 190 40" fill="none" xmlns="http://www.w3.org/2000/svg">
<ellipse cx="26.4949" cy="17.1386" rx="4.76908" ry="4.76908" fill="white" fill-opacity="0.8"/>
<path d="M16.1088 21.59C20.3228 21.59 23.7394 25.0059 23.7396 29.2199C23.7396 32.0293 21.462 34.3076 18.6527 34.3078H7.84216C5.03283 34.3076 2.75525 32.0293 2.75525 29.2199C2.75548 25.0059 6.17203 21.59 10.3861 21.59H16.1088ZM13.2474 5.69255C16.7593 5.69255 19.6058 8.54007 19.6058 12.0519C19.6057 15.5636 16.7592 18.4103 13.2474 18.4103C9.73571 18.4103 6.88919 15.5636 6.88904 12.0519C6.88904 8.5401 9.73562 5.69259 13.2474 5.69255Z" fill="white" fill-opacity="0.6"/>
<path d="M31.5512 34.3074C33.6753 34.3074 35.3972 32.5423 35.3972 30.3649C35.3972 27.0989 32.8143 24.4513 29.6282 24.4513H25.3284C25.7333 25.1554 25.7631 25.0364 26.2946 26.6415C26.8261 28.2466 26.8289 30.1753 26.0786 32.1171C25.7124 32.9177 25.2022 33.6595 24.5873 34.3074H31.5512Z" fill="white" fill-opacity="0.8"/>
<path d="M52.0929 16.1416C51.8652 16.1416 51.7015 16.0573 51.6018 15.8887C51.4168 15.5375 51.1819 15.2636 50.8973 15.0669C50.5699 14.8281 50.1357 14.7086 49.5948 14.7086C48.9828 14.7086 48.4988 14.8702 48.143 15.1933C47.8441 15.4602 47.6946 15.8115 47.6946 16.247C47.6946 16.4436 47.7231 16.5982 47.78 16.7106C47.8369 16.7948 47.9366 16.9072 48.0789 17.0477C48.3209 17.2584 48.7764 17.4973 49.4454 17.7642L50.8546 18.3121C51.9506 18.7335 52.7548 19.1761 53.2672 19.6397C54.0643 20.3702 54.4629 21.2763 54.4629 22.358C54.4629 23.6505 54.0003 24.7182 53.0751 25.5611C52.0929 26.4321 50.8403 26.8676 49.3173 26.8676C47.8654 26.8676 46.684 26.4672 45.773 25.6664C45.0328 25.0343 44.5275 24.1843 44.2571 23.1166C44.2571 23.0745 44.2571 23.0394 44.2571 23.0113C44.2571 22.7584 44.3852 22.6039 44.6414 22.5477L46.2214 22.1473C46.2641 22.1333 46.3139 22.1262 46.3708 22.1262C46.4989 22.1262 46.6128 22.1684 46.7125 22.2527C46.8263 22.3229 46.8904 22.4212 46.9046 22.5477C46.99 23.0956 47.232 23.5592 47.6305 23.9385C47.7871 24.079 47.9864 24.1913 48.2284 24.2756C48.4704 24.3459 48.7052 24.4021 48.933 24.4442C49.1749 24.4864 49.3102 24.5145 49.3386 24.5285C50.0646 24.5285 50.641 24.3318 51.0681 23.9385C51.4951 23.5592 51.7086 23.0534 51.7086 22.4212C51.7086 21.9576 51.5307 21.5643 51.1748 21.2412C50.9328 21.0445 50.3991 20.7776 49.5735 20.4404C48.691 20.0752 48.2141 19.8715 48.143 19.8293C47.2747 19.4781 46.6128 19.1058 46.1573 18.7125C45.8015 18.4034 45.531 18.0803 45.346 17.7431C45.104 17.3076 44.983 16.8019 44.983 16.2259C44.983 15.1582 45.3816 14.2661 46.1787 13.5497C47.0612 12.7629 48.207 12.3696 49.6162 12.3696C50.6268 12.3696 51.5093 12.5944 52.2637 13.0439C52.9327 13.4373 53.4665 13.9781 53.8651 14.6665C53.9078 14.7367 53.9291 14.814 53.9291 14.8983C53.9291 15.0669 53.8437 15.2003 53.6729 15.2987L52.3918 16.0784C52.3064 16.1205 52.2068 16.1416 52.0929 16.1416Z" fill="white"/>
<path d="M63.0582 20.8829C63.0582 20.7565 63.1009 20.6441 63.1863 20.5458C63.2859 20.4474 63.4069 20.3983 63.5493 20.3983H65.4495C65.5918 20.3983 65.7128 20.4474 65.8125 20.5458L67.7554 22.5055C68.3817 21.6767 68.6949 20.7144 68.6949 19.6186C68.6949 18.2699 68.218 17.118 67.2643 16.1627C66.3107 15.1933 65.1577 14.7086 63.8055 14.7086C62.4532 14.7086 61.3003 15.1933 60.3466 16.1627C59.3929 17.118 58.9161 18.2699 58.9161 19.6186C58.9161 20.9672 59.3858 22.1262 60.3253 23.0956C61.2789 24.0509 62.439 24.5285 63.8055 24.5285C64.5599 24.5285 65.2716 24.3599 65.9406 24.0228L63.1863 21.2412C63.1009 21.1428 63.0582 21.0234 63.0582 20.8829ZM63.8055 12.3696C65.1577 12.3696 66.3961 12.6857 67.5206 13.3179C68.6593 13.95 69.556 14.821 70.2108 15.9309C70.8656 17.0407 71.1929 18.2699 71.1929 19.6186C71.1929 21.4168 70.6307 22.9762 69.5062 24.2967L71.1289 25.9404C71.2285 26.0387 71.2783 26.1511 71.2783 26.2775C71.2783 26.404 71.2285 26.5164 71.1289 26.6147C71.0435 26.713 70.9296 26.7622 70.7873 26.7622H68.8657C68.7233 26.7622 68.6095 26.713 68.5241 26.6147L67.7341 25.8139C66.5526 26.5164 65.2431 26.8676 63.8055 26.8676C62.4532 26.8676 61.2078 26.5515 60.069 25.9193C58.9446 25.2871 58.0549 24.4161 57.4002 23.3063C56.7454 22.1965 56.418 20.9672 56.418 19.6186C56.418 18.2699 56.7454 17.0407 57.4002 15.9309C58.0549 14.821 58.9446 13.95 60.069 13.3179C61.2078 12.6857 62.4532 12.3696 63.8055 12.3696Z" fill="white"/>
<path d="M84.2159 23.0956C85.1696 22.1262 85.6464 20.9672 85.6464 19.6186C85.6464 18.2699 85.1696 17.118 84.2159 16.1627C83.2765 15.1933 82.1235 14.7086 80.757 14.7086C79.3906 14.7086 78.2305 15.1933 77.2768 16.1627C76.3374 17.118 75.8677 18.2699 75.8677 19.6186C75.8677 20.9672 76.3374 22.1262 77.2768 23.0956C78.2305 24.0509 79.3906 24.5285 80.757 24.5285C82.1235 24.5285 83.2765 24.0509 84.2159 23.0956ZM87.1624 15.9309C87.8171 17.0407 88.1445 18.2699 88.1445 19.6186C88.1445 20.9672 87.8171 22.1965 87.1624 23.3063C86.5076 24.4161 85.618 25.2871 84.4935 25.9193C83.369 26.5515 82.1235 26.8676 80.757 26.8676C79.3906 26.8676 78.1451 26.5515 77.0206 25.9193C75.8961 25.2871 75.0065 24.4161 74.3517 23.3063C73.697 22.1965 73.3696 20.9672 73.3696 19.6186C73.3696 18.2699 73.697 17.0407 74.3517 15.9309C75.0065 14.821 75.8961 13.95 77.0206 13.3179C78.1593 12.6857 79.4048 12.3696 80.757 12.3696C82.1093 12.3696 83.3476 12.6857 84.4721 13.3179C85.6109 13.95 86.5076 14.821 87.1624 15.9309Z" fill="white"/>
<path d="M101.167 23.0956C102.121 22.1262 102.598 20.9672 102.598 19.6186C102.598 18.2699 102.121 17.118 101.167 16.1627C100.228 15.1933 99.0751 14.7086 97.7086 14.7086C96.3421 14.7086 95.1821 15.1933 94.2284 16.1627C93.2889 17.118 92.8192 18.2699 92.8192 19.6186C92.8192 20.9672 93.2889 22.1262 94.2284 23.0956C95.1821 24.0509 96.3421 24.5285 97.7086 24.5285C99.0751 24.5285 100.228 24.0509 101.167 23.0956ZM104.114 15.9309C104.769 17.0407 105.096 18.2699 105.096 19.6186C105.096 20.9672 104.769 22.1965 104.114 23.3063C103.459 24.4161 102.57 25.2871 101.445 25.9193C100.321 26.5515 99.0751 26.8676 97.7086 26.8676C96.3421 26.8676 95.0967 26.5515 93.9722 25.9193C92.8477 25.2871 91.9581 24.4161 91.3033 23.3063C90.6485 22.1965 90.3212 20.9672 90.3212 19.6186C90.3212 18.2699 90.6485 17.0407 91.3033 15.9309C91.9581 14.821 92.8477 13.95 93.9722 13.3179C95.1109 12.6857 96.3564 12.3696 97.7086 12.3696C99.0608 12.3696 100.299 12.6857 101.424 13.3179C102.562 13.95 103.459 14.821 104.114 15.9309Z" fill="white"/>
<path d="M108.298 26.6358C108.155 26.6358 108.034 26.5866 107.935 26.4883C107.835 26.3899 107.785 26.2775 107.785 26.1511V13.065C107.785 12.9385 107.835 12.8262 107.935 12.7278C108.034 12.6295 108.155 12.5803 108.298 12.5803H109.771C109.913 12.5803 110.027 12.6295 110.112 12.7278C110.212 12.8262 110.262 12.9385 110.262 13.065V24.2756H115.493C115.635 24.2756 115.756 24.3248 115.856 24.4231C115.955 24.5074 116.005 24.6268 116.005 24.7814V26.1511C116.005 26.2775 115.955 26.3899 115.856 26.4883C115.756 26.5866 115.635 26.6358 115.493 26.6358H108.298Z" fill="white"/>
<path d="M123.333 19.6397C123.333 18.3612 123.646 17.1882 124.273 16.1205C124.913 15.0388 125.781 14.1889 126.877 13.5707C127.974 12.9526 129.169 12.6435 130.464 12.6435C131.062 12.6435 131.639 12.7138 132.194 12.8543C132.749 12.9947 133.226 13.1774 133.624 13.4021C134.023 13.6269 134.322 13.8166 134.521 13.9711C134.72 14.1256 134.905 14.2802 135.076 14.4347C135.133 14.4768 135.162 14.533 135.162 14.6033V15.7412C135.162 15.8115 135.133 15.8747 135.076 15.9309C135.034 15.973 134.977 15.9941 134.905 15.9941C134.834 15.9941 134.77 15.959 134.713 15.8887C134.614 15.7763 134.507 15.6639 134.393 15.5516C133.297 14.4698 131.98 13.929 130.443 13.929C128.82 13.929 127.461 14.4909 126.365 15.6148C125.283 16.7246 124.742 18.0803 124.742 19.6818C124.742 21.2693 125.276 22.5828 126.344 23.6224C126.899 24.1703 127.539 24.5917 128.265 24.8867C129.005 25.1818 129.739 25.3293 130.464 25.3293C131.133 25.3293 131.831 25.1888 132.557 24.9078C133.283 24.6269 133.945 24.1984 134.543 23.6224C134.599 23.5521 134.656 23.4889 134.713 23.4327C134.77 23.3765 134.834 23.3484 134.905 23.3484C134.977 23.3484 135.034 23.3765 135.076 23.4327C135.133 23.4749 135.162 23.5311 135.162 23.6013V24.7392C135.162 24.8095 135.133 24.8727 135.076 24.9289C133.781 26.0528 132.258 26.6147 130.507 26.6147C128.5 26.6147 126.799 25.9404 125.404 24.5917C124.024 23.229 123.333 21.5783 123.333 19.6397Z" fill="white"/>
<path d="M138.401 13.065C138.401 12.9947 138.423 12.9385 138.465 12.8964C138.522 12.8543 138.586 12.8332 138.658 12.8332H139.533C139.604 12.8332 139.661 12.8613 139.704 12.9175C139.747 12.9596 139.768 13.0088 139.768 13.065C139.768 14.4136 139.768 16.4296 139.768 19.1128C139.768 21.782 139.768 23.7839 139.768 25.1185H145.405C145.476 25.1185 145.533 25.1466 145.575 25.2028C145.632 25.245 145.661 25.2942 145.661 25.3503V26.1511C145.661 26.2073 145.632 26.2635 145.575 26.3197C145.533 26.3618 145.476 26.3829 145.405 26.3829H138.658C138.586 26.3829 138.522 26.3618 138.465 26.3197C138.423 26.2775 138.401 26.2213 138.401 26.1511V13.065Z" fill="white"/>
<path d="M152.703 15.5305L150.546 20.7986H154.817L152.703 15.5305ZM147.151 26.3829C147.066 26.3829 147.002 26.3618 146.959 26.3197C146.917 26.2635 146.895 26.2003 146.895 26.13C146.895 26.1019 146.902 26.0738 146.917 26.0457L152.489 12.5803C152.532 12.4679 152.61 12.4117 152.724 12.4117C152.838 12.4117 152.916 12.4679 152.959 12.5803L158.446 26.0457C158.46 26.0738 158.468 26.1019 158.468 26.13C158.468 26.2003 158.446 26.2635 158.403 26.3197C158.361 26.3618 158.297 26.3829 158.211 26.3829H157.272C157.158 26.3829 157.08 26.3267 157.037 26.2143L155.329 22.0841H150.034L148.326 26.2143C148.283 26.3267 148.205 26.3829 148.091 26.3829H147.151Z" fill="white"/>
<path d="M164.098 25.3293C165.009 25.3293 165.777 25.0694 166.403 24.5496C167.03 24.0157 167.343 23.3555 167.343 22.5688C167.343 22.0068 167.122 21.5362 166.681 21.1569C166.51 21.0024 166.304 20.8548 166.062 20.7144C165.649 20.5036 164.831 20.1243 163.606 19.5764C162.454 19.0847 161.692 18.6703 161.322 18.3331C161.137 18.1646 160.973 17.9749 160.831 17.7642C160.489 17.2725 160.318 16.7316 160.318 16.1416C160.318 15.1442 160.696 14.3083 161.45 13.6339C162.19 12.9737 163.151 12.6435 164.332 12.6435C165.542 12.6435 166.553 13.0088 167.364 13.7393C167.663 14.0062 167.912 14.3083 168.112 14.6454C168.14 14.6735 168.154 14.7086 168.154 14.7508C168.154 14.8351 168.119 14.8983 168.048 14.9404L167.343 15.4673C167.3 15.5094 167.243 15.5305 167.172 15.5305C167.058 15.5305 166.98 15.4883 166.937 15.404C166.766 15.109 166.567 14.8562 166.339 14.6454C165.799 14.1678 165.122 13.929 164.311 13.929C163.585 13.929 162.994 14.1327 162.539 14.5401C162.098 14.9475 161.877 15.4743 161.877 16.1205C161.877 16.6403 162.062 17.0688 162.432 17.406C162.745 17.6869 163.606 18.1294 165.016 18.7335C166.069 19.1831 166.802 19.5413 167.215 19.8082C167.485 19.9768 167.713 20.1454 167.898 20.314C168.553 20.904 168.88 21.6486 168.88 22.5477C168.88 23.6997 168.41 24.669 167.471 25.4557C166.532 26.2284 165.4 26.6147 164.076 26.6147C162.752 26.6147 161.656 26.2213 160.788 25.4346C160.689 25.3503 160.589 25.252 160.489 25.1396C160.034 24.6901 159.699 24.1913 159.486 23.6435C159.486 23.6154 159.486 23.5873 159.486 23.5592C159.486 23.4608 159.536 23.3836 159.635 23.3274L160.468 22.9902C160.496 22.9762 160.532 22.9691 160.575 22.9691C160.703 22.9691 160.788 23.0183 160.831 23.1166C160.987 23.524 161.237 23.9244 161.578 24.3178C161.649 24.388 161.72 24.4512 161.792 24.5074C162.389 25.0553 163.158 25.3293 164.098 25.3293Z" fill="white"/>
<path d="M175.253 25.3293C176.164 25.3293 176.932 25.0694 177.559 24.5496C178.185 24.0157 178.498 23.3555 178.498 22.5688C178.498 22.0068 178.277 21.5362 177.836 21.1569C177.665 21.0024 177.459 20.8548 177.217 20.7144C176.804 20.5036 175.986 20.1243 174.762 19.5764C173.609 19.0847 172.847 18.6703 172.477 18.3331C172.292 18.1646 172.128 17.9749 171.986 17.7642C171.644 17.2725 171.474 16.7316 171.474 16.1416C171.474 15.1442 171.851 14.3083 172.605 13.6339C173.345 12.9737 174.306 12.6435 175.488 12.6435C176.697 12.6435 177.708 13.0088 178.519 13.7393C178.818 14.0062 179.067 14.3083 179.267 14.6454C179.295 14.6735 179.309 14.7086 179.309 14.7508C179.309 14.8351 179.274 14.8983 179.203 14.9404L178.498 15.4673C178.455 15.5094 178.398 15.5305 178.327 15.5305C178.213 15.5305 178.135 15.4883 178.092 15.404C177.922 15.109 177.722 14.8562 177.495 14.6454C176.954 14.1678 176.277 13.929 175.466 13.929C174.74 13.929 174.15 14.1327 173.694 14.5401C173.253 14.9475 173.032 15.4743 173.032 16.1205C173.032 16.6403 173.217 17.0688 173.587 17.406C173.9 17.6869 174.762 18.1294 176.171 18.7335C177.224 19.1831 177.957 19.5413 178.37 19.8082C178.64 19.9768 178.868 20.1454 179.053 20.314C179.708 20.904 180.035 21.6486 180.035 22.5477C180.035 23.6997 179.566 24.669 178.626 25.4557C177.687 26.2284 176.555 26.6147 175.231 26.6147C173.908 26.6147 172.812 26.2213 171.943 25.4346C171.844 25.3503 171.744 25.252 171.644 25.1396C171.189 24.6901 170.854 24.1913 170.641 23.6435C170.641 23.6154 170.641 23.5873 170.641 23.5592C170.641 23.4608 170.691 23.3836 170.79 23.3274L171.623 22.9902C171.651 22.9762 171.687 22.9691 171.73 22.9691C171.858 22.9691 171.943 23.0183 171.986 23.1166C172.143 23.524 172.392 23.9244 172.733 24.3178C172.804 24.388 172.876 24.4512 172.947 24.5074C173.545 25.0553 174.313 25.3293 175.253 25.3293Z" fill="white"/>
<path d="M189.765 12.8332C189.836 12.8332 189.893 12.8613 189.936 12.9175C189.979 12.9596 190 13.0088 190 13.065V13.8657C190 13.936 189.972 13.9922 189.915 14.0343C189.872 14.0765 189.822 14.0975 189.765 14.0975C189.182 14.0975 188.306 14.0975 187.139 14.0975C185.986 14.0975 185.118 14.0975 184.534 14.0975V18.3542H189.637C189.708 18.3542 189.765 18.3823 189.808 18.4385C189.865 18.4807 189.893 18.5368 189.893 18.6071V19.3868C189.893 19.457 189.865 19.5132 189.808 19.5554C189.765 19.5975 189.708 19.6186 189.637 19.6186H184.534V25.1185H189.765C189.836 25.1185 189.893 25.1466 189.936 25.2028C189.979 25.245 190 25.2942 190 25.3503V26.1511C190 26.2073 189.979 26.2635 189.936 26.3197C189.893 26.3618 189.836 26.3829 189.765 26.3829H183.403C183.331 26.3829 183.274 26.3618 183.232 26.3197C183.189 26.2775 183.168 26.2213 183.168 26.1511V13.065C183.168 12.9947 183.189 12.9385 183.232 12.8964C183.274 12.8543 183.331 12.8332 183.403 12.8332H189.765Z" fill="white"/>
</svg>
