<svg width="29" height="28" viewBox="0 0 29 28" fill="none" xmlns="http://www.w3.org/2000/svg">
<rect x="0.5" width="28" height="28" rx="4" fill="url(#paint0_linear_5108_109)"/>
<ellipse cx="18.3887" cy="12.5" rx="2.5" ry="2.5" fill="white" fill-opacity="0.8"/>
<path d="M12.9443 14.833C15.1534 14.833 16.9442 16.624 16.9443 18.833C16.9443 20.3057 15.7509 21.4998 14.2783 21.5H8.61133C7.13857 21.5 5.94434 20.3058 5.94434 18.833C5.94451 16.6241 7.73545 14.8332 9.94434 14.833H12.9443ZM11.4443 6.5C13.2852 6.5 14.7781 7.99221 14.7783 9.83301C14.7783 11.674 13.2853 13.167 11.4443 13.167C9.60353 13.1668 8.11133 11.6738 8.11133 9.83301C8.11151 7.99232 9.60364 6.50017 11.4443 6.5Z" fill="white" fill-opacity="0.6"/>
<path d="M21.0392 21.5C22.1527 21.5 23.0553 20.5747 23.0553 19.4333C23.0553 17.7213 21.7014 16.3333 20.0312 16.3333H17.7772C17.9894 16.7025 18.005 16.6401 18.2836 17.4815C18.5623 18.3229 18.5638 19.3339 18.1705 20.3519C17.9785 20.7715 17.711 21.1604 17.3887 21.5H21.0392Z" fill="white" fill-opacity="0.8"/>
<defs>
<linearGradient id="paint0_linear_5108_109" x1="0.0798071" y1="6.001" x2="28.2103" y2="6.53896" gradientUnits="userSpaceOnUse">
<stop stop-color="#FF8532"/>
<stop offset="1" stop-color="#FC7365"/>
</linearGradient>
</defs>
</svg>
